PathFileType	4	(X/Y/Z)	C:/Users/beibeiliu/ov580/test_trc/User2\sequence.40_training_dense_left.trc
DataRate	CameraRate	NumFrames	NumMarkers	Units	OrigDataRate	OrigDataStartFrame	OrigNumFrames
120	120	18	19	mm	120	25	198
Frame#	Time	ThumbCMC			ThumbMCP			ThumbIP			ThumbTip			IndexMCP			IndexPIP			IndexTip			MiddleMCP			MiddlePIP			MiddleTip			RingMCP			RingPIP			RingTip			PinkyMCP			PinkyPIP			PinkyTip			BackHand1			BackHand2			BackHand3	
		X0	Y0	Z0	X1	Y1	Z1	X2	Y2	Z2	X3	Y3	Z3	X4	Y4	Z4	X5	Y5	Z5	X6	Y6	Z6	X7	Y7	Z7	X8	Y8	Z8	X9	Y9	Z9	X10	Y10	Z10	X11	Y11	Z11	X12	Y12	Z12	X13	Y13	Z13	X14	Y14	Z14	X15	Y15	Z15	X16	Y16	Z16	X17	Y17	Z17	X18	Y18	Z18	
24	0.2	-155.386	11.3195	18.0225	-132.624	2.81406	-1.69937	-115.103	-5.99729	-23.0344	-96.0529	-13.0169	-40.7591	-167.615	23.8218	-64.4924	-162.749	22.5613	-90.7579	-157	19.4853	-120.153	-197.778	27.9588	-71.4671	-199.254	26.5605	-104.071	-201.257	22.4172	-139.601	-228.926	20.6984	-65.8675	-232.049	18.7659	-92.0293	-237.396	13.2673	-119.285	-251.576	7.59103	-48.1702	-263.682	3.12823	-65.0742	-272.836	4.58366	-88.5511	-220.332	30.2596	-9.94497	-225.333	34.8639	21.0919	-190.608	34.4084	6.5105	
25	0.208333	-160.742	9.76159	18.4111	-133.324	2.93694	0.788426	-110.476	-3.65859	-25.8496	-94.8358	-11.7226	-40.4106	-170.613	25.4647	-67.8195	-162.323	23.8243	-94.9669	-157.417	20.1831	-121.918	-197.537	29.343	-74.1357	-195.302	27.6896	-106.055	-199.097	21.9956	-138.053	-229.315	21.8148	-67.1297	-234.122	19.2083	-95.5127	-238.442	13.4261	-124.25	-250.293	8.3397	-49.4126	-263.988	4.45237	-69.5437	-275.146	4.71238	-89.9165	-225.52	29.2415	-7.29298	-221.225	35.7433	20.4964	-190.019	33.8731	4.74086	
26	0.216667	-157.135	11.1144	16.0635	-133.935	3.63161	-2.25763	-115.131	-3.42479	-27.3327	-100.131	-12.1528	-44.276	-167.604	24.5947	-63.2918	-165.573	24.9436	-92.1961	-160.081	21.1285	-118.266	-201.189	29.0911	-74.3247	-195.988	26.8169	-103.57	-197.486	23.7973	-134.522	-225.265	22.6706	-68.1946	-230.819	19.7045	-95.3481	-233.662	15.1631	-124.957	-252.05	8.73361	-45.9772	-261.804	4.92739	-71.6285	-274.229	7.76779	-88.8261	-226.336	28.5878	-11.7496	-225.692	36.3159	24.3894	-188.554	34.1673	3.42465	
27	0.225	-160.926	10.6688	16.4347	-133.801	2.99122	0.888954	-111.125	-2.47797	-28.25	-94.4926	-11.1441	-43.3976	-172.323	24.4061	-63.492	-161.335	24.6099	-93.6346	-162.002	21.0947	-120.094	-197.233	28.7566	-74.8322	-200.067	27.5374	-105.625	-196.522	23.3475	-139.322	-228.879	21.9792	-65.6667	-233.13	18.6362	-95.949	-236.344	15.0281	-120.795	-253.577	8.74595	-45.0912	-260.242	3.98061	-67.037	-273.955	5.21284	-89.4699	-221.795	27.9767	-9.32826	-225.132	33.9918	24.0396	-190.205	33.9496	1.14816	
28	0.233333	-156.626	11.798	15.2054	-137.426	2.73574	0.916477	-113.876	-4.18851	-25.168	-98.6322	-12.7415	-41.5568	-170.323	25.0719	-65.8613	-164.701	24.1566	-92.0487	-160.554	21.1741	-124.705	-196.623	28.094	-70.6504	-196.996	27.1844	-106.609	-200.445	22.6699	-134.142	-226.801	21.1267	-68.3803	-230.036	19.5404	-95.8049	-233.486	15.3748	-121.267	-249.63	9.28774	-46.6329	-263.965	4.34389	-69.567	-275.448	6.77534	-90.0471	-225.505	29.826	-12.5739	-222.377	35.7162	24.975	-189.28	35.9521	3.93502	
29	0.241667	-157.882	10.656	18.7157	-137.327	3.1976	-1.43799	-109.756	-3.20835	-22.506	-95.3972	-13.1074	-40.3592	-172.032	24.7397	-64.0062	-162.504	24.1444	-91.8273	-155.782	20.8781	-122.149	-200.701	29.7112	-73.1428	-198.668	27.2727	-105.171	-198.106	22.7777	-139.008	-226.121	20.931	-67.1056	-231.271	18.4644	-93.9688	-237.481	15.306	-120.588	-248.153	8.57612	-47.4659	-263.319	5.55229	-70.5552	-273.755	6.74878	-91.493	-220.333	29.2916	-8.11107	-220.95	33.9318	22.3408	-187.314	35.4982	4.56625	
30	0.25	-160.494	11.1188	14.6763	-133.319	4.49736	-1.87294	-114.93	-5.29811	-23.4578	-97.6738	-13.4099	-43.4201	-166.69	25.7443	-66.8407	-164.951	24.4109	-90.5467	-159.448	21.8058	-123.613	-200.942	28.9811	-70.1613	-200.371	27.9352	-104.978	-201.425	23.0755	-134.878	-227.252	22.5515	-67.9821	-234.495	18.8525	-94.4679	-232.942	14.6935	-122.832	-251.013	8.74961	-47.9699	-263.013	4.48357	-67.3669	-276.033	8.24722	-92.2714	-225.6	31.2127	-11.0233	-223.368	34.7211	23.7092	-189.471	36.0261	3.50713	
31	0.258333	-159.196	11.3243	17.6295	-132.117	3.61121	0.143681	-114.667	-3.92838	-22.8225	-94.7754	-11.7927	-39.693	-169.634	25.8585	-67.1308	-161.037	24.1592	-90.5905	-156.189	21.7751	-120.465	-197.745	29.9564	-74.1168	-197.411	27.2601	-105.495	-196.868	24.3619	-137.255	-228.819	21.3137	-64.8838	-231.388	18.8279	-90.417	-234.06	14.8774	-121.88	-251.33	8.72541	-44.1455	-265.169	5.66436	-68.5524	-273.196	7.07972	-87.7227	-223.645	31.4294	-9.37812	-220.653	34.1581	24.96	-184.629	34.4769	3.03826	
32	0.266667	-158.863	11.1464	16.2817	-134.726	4.47491	0.783083	-111.156	-2.88702	-22.9825	-98.0491	-10.5867	-41.84	-167.739	26.0357	-61.9235	-162.471	25.2299	-92.2512	-159.048	23.0369	-121.054	-199.786	29.5761	-71.1877	-198.78	28.9643	-103.794	-197.185	23.8586	-135.909	-225.463	23.2323	-65.9415	-232.203	20.1748	-90.8119	-234.363	14.7066	-120.55	-252.402	9.36669	-46.5771	-260.181	6.89321	-71.5883	-272.368	7.83103	-94.172	-224.555	31.3973	-10.7108	-220.911	33.7089	24.4921	-190.92	33.4876	4.41388	
33	0.275	-156.75	13.7018	17.2952	-133.607	8.14915	-1.43155	-111.284	2.43945	-29.0481	-98.2566	-4.81028	-41.9284	-171.893	29.4016	-64.6294	-165.058	30.3985	-93.0844	-159.238	27.1135	-122.117	-197.588	32.4618	-74.6193	-198.346	31.1151	-104.604	-197.516	26.3697	-134.883	-225.024	24.9713	-69.5971	-230.886	21.5569	-93.2622	-233.269	15.4485	-124.902	-252.93	12.4083	-51.9298	-259.172	8.46173	-75.1119	-271.774	10.1871	-94.309	-221.477	32.6884	-11.6952	-222.01	35.3874	19.5283	-190.435	37.1633	2.54761	
34	0.283333	-158.82	16.1057	16.8217	-133	11.5091	-0.0272465	-113.024	8.28526	-25.4853	-97.9198	3.68557	-44.5943	-169.073	34.6422	-62.996	-163.069	35.8803	-96.3586	-159.871	33.8574	-119.95	-196.441	38.1325	-75.6414	-197.818	35.3547	-108.031	-196.389	27.9969	-140.544	-226.663	29.227	-68.539	-227.25	26.3019	-97.5378	-230.959	17.9382	-127.109	-249.235	14.0914	-48.7697	-257.879	12.111	-77.9066	-265.421	12.7084	-100.322	-221.31	34.9956	-11.5403	-223.015	36.249	23.582	-191.427	39.133	2.76697	
35	0.291667	-157.135	15.0249	18.4509	-134.151	14.1574	-3.57898	-114.579	11.4486	-26.2704	-97.491	6.92214	-45.2172	-166.783	36.2375	-64.0632	-157.597	36.5478	-95.4416	-156.661	33.6899	-119.669	-199.749	38.3807	-76.313	-195.302	35.2221	-107.947	-194.165	28.9036	-139.219	-226.829	29.1251	-69.2541	-228.362	26.0686	-98.8382	-228.823	17.7955	-125.14	-249.907	16.4199	-54.5798	-257.194	12.6813	-79.4587	-266.018	11.3313	-98.2386	-223.728	35.9302	-13.4556	-224.292	37.2607	21.6017	-190.259	37.1052	4.63642	
36	0.3	-157.574	14.8362	17.1786	-136.688	13.6981	-4.33325	-114.942	12.1555	-26.1328	-92.4694	10.1053	-42.2362	-171.524	33.8809	-66.6241	-164.322	35.048	-92.356	-160.791	31.981	-121.713	-198.939	36.5961	-74.1955	-195.636	34.2809	-105.29	-200.175	27.0417	-137.826	-227.099	27.4355	-67.7509	-229.352	24.0202	-94.7493	-229.626	15.3784	-129.236	-248.167	14.7851	-55.6504	-255.472	11.2505	-79.0106	-267.878	11.1436	-101.311	-226.366	33.0122	-10.5637	-223.897	36.5397	20.0304	-190.982	36.2617	3.39286	
37	0.308333	-160.94	12.7472	12.0837	-138.222	13.4306	-8.04103	-115.935	12.146	-27.4238	-94.0637	11.2555	-42.318	-172.535	30.9512	-73.3909	-165.038	31.3367	-98.6698	-159.003	28.0894	-125.735	-203.18	32.2715	-75.6068	-201.115	29.8959	-109.232	-203.874	22.4729	-140.34	-230.635	24.0853	-70.4776	-230.438	20.6784	-101.608	-236.71	12.2925	-131.824	-251.212	11.83	-51.6885	-260.448	7.87191	-78.0677	-265.096	9.91922	-100.252	-223.084	30.3192	-11.3055	-228.389	33.5713	19.0071	-188.617	35.0389	-1.04994	
38	0.316667	-166.758	11.2602	7.87216	-140.213	13.7886	-9.13053	-117.093	18.0222	-31.8825	-101.174	15.4206	-45.9076	-176.563	28.9374	-72.8695	-166.067	30.3845	-102.238	-166.099	29.5095	-130.446	-202.78	29.1325	-80.7008	-205.307	25.6762	-114.91	-207.899	18.1501	-148.724	-230.87	20.0543	-77.4884	-235.351	16.6521	-104.536	-238.081	9.09607	-133.262	-252.64	5.96854	-60.5549	-263.426	2.40593	-83.3397	-272.46	3.48935	-109.974	-230.748	23.5941	-16.8635	-227.514	27.9003	13.5737	-193.128	32.7667	-4.35933	
39	0.325	-169.205	12.8371	5.37396	-147.237	17.0219	-11.1171	-119.739	28.1421	-34.671	-98.7048	32.5516	-48.7484	-177.077	35.3156	-79.1728	-169.426	38.7157	-101.031	-163.925	39.1129	-133.058	-208.366	30.9615	-87.7607	-205.882	27.6047	-120.283	-207.377	20.8495	-148.417	-229.771	20.043	-80.9674	-234.552	15.8734	-110.213	-236.706	8.28958	-140.914	-252.366	3.58594	-68.092	-259.169	-0.216597	-92.6945	-264.479	-2.94611	-118.971	-229.828	23.8927	-21.3606	-233.282	22.5309	9.59978	-195.625	31.3958	-4.75615	
40	0.333333	-164.183	23.4844	7.59998	-146.322	32.617	-9.75116	-122.429	48.1044	-28.2719	-102.077	55.9762	-39.3213	-176.201	45.1623	-77.0992	-165.59	49.6586	-100.958	-161.543	49.7984	-129.157	-202.763	34.4062	-87.3609	-197.902	32.6495	-118.777	-188.963	24.9147	-150.494	-224.756	18.1251	-84.5026	-222.704	16.2541	-112.399	-215.418	7.74073	-144.501	-239.472	-0.132946	-70.4927	-244.683	-6.6908	-97.9782	-242.604	-7.75043	-124.708	-231.863	19.3903	-27.9651	-233.685	18.62	6.84433	-201.23	34.6542	-5.54575	
41	0.341667	-173.459	39.45	11.4178	-157.038	50.2598	-3.91723	-137.287	75.4967	-27.3253	-123.155	86.9822	-39.2165	-176.564	47.6497	-73.6755	-167.008	52.268	-98.2619	-157.318	48.9734	-126.449	-195.285	26.4769	-89.915	-183.328	24.0989	-119.109	-170.787	12.9011	-148.148	-210.226	3.2178	-86.2442	-199.022	1.61598	-112.538	-184.416	-5.00823	-139.728	-221.232	-20.1427	-74.08	-214.719	-25.9474	-100.758	-207.885	-32.1984	-127.696	-225.326	7.67599	-29.6039	-231.333	8.81905	2.79782	-206.403	34.9601	-5.7855	
